<?xml version="1.0" encoding="utf-8"?>
<!-- Generator: Adobe Illustrator 24.0.2, SVG Export Plug-In . SVG Version: 6.00 Build 0)  -->
<svg version="1.1" id="Ebene_1" xmlns="http://www.w3.org/2000/svg"
	xmlns:xlink="http://www.w3.org/1999/xlink" x="0px" y="0px"
	viewBox="0 0 325.9 487.8" style="enable-background:new 0 0 325.9 487.8;" xml:space="preserve">
<style type="text/css">
	.st0{fill:rgb(82 82 91);fill-opacity:1;}
</style>
<path class="st0" d="M325.9,0h-58.8h-51.5H110.3H58.8H0v487.8h58.8h51.5h105.3h51.5h58.8L325.9,0L325.9,0z M323.7,485.5
	 M115.9,242.8c0.6-25.4,21.5-46,47-46s46.4,20.5,47,46H115.9z M210,245c-0.6,25.4-21.5,46-47,46c-25.6,0-46.4-20.5-47-46H210z
	 M323.7,11.4 M323.7,2.2 M213.4,2.2v30.4H112.6V2.2H213.4z M110.3,34.9h105.3V2.2h49.3v82.1h-60.3h-83.4H61V2.2h49.3L110.3,34.9
	L110.3,34.9z M200.3,86.6C191.4,98.2,177.6,105,163,105s-28.4-6.8-37.3-18.4L200.3,86.6L200.3,86.6z M323.7,2.2l0,240.5H212.3
	c-0.6-26.7-22.5-48.2-49.3-48.2c-26.8,0-48.7,21.5-49.3,48.2H2.2V2.2 M58.8,2.2c0,28.1,0,56.2,0,84.4h0h64.1
	c9.3,12.9,24.2,20.7,40.1,20.7s30.8-7.7,40.1-20.7h64.1V2.2c18.8,0,37.7,0,56.5,0c-107.1,0-214.3,0-321.4,0 M112.6,485.5v-30.4
	h100.8v30.4H112.6z M215.6,452.9H110.3v32.6H61v-82.1h60.3h83.4h60.3v82.1h-49.3L215.6,452.9L215.6,452.9z M125.7,401.2
	c8.9-11.6,22.7-18.4,37.3-18.4s28.4,6.8,37.3,18.4H125.7z M2.2,245h111.4c0.6,26.7,22.5,48.2,49.3,48.2c26.8,0,48.7-21.5,49.3-48.2
	h111.4c0,0,0,238.8,0,240.5l-56.5,0v-84.4h0h-64.1c-9.3-12.9-24.2-20.7-40.1-20.7c-15.9,0-30.8,7.7-40.1,20.7H58.8v84.4l-56.5-0.5"
	/>
</svg>