<svg width="100%" height="100%" viewBox="0 0 201 210" fill="#fff" xmlns="http://www.w3.org/2000/svg">
    <path fill-rule="evenodd" clip-rule="evenodd" d="M180.38 35.36L129.54 64.71L120.47 59.47V0.589966H80.29V40.6799C80.29 58.8899 90.01 75.72 105.78 84.83L114.92 90.11C130.69 99.22 150.13 99.22 165.9 90.11L200.47 70.15L180.38 35.36ZM180.38 174.27L200.47 139.48L165.9 119.52C150.13 110.41 130.69 110.41 114.92 119.52L105.78 124.8C90.01 133.91 80.29 150.73 80.29 168.95V209.04H120.47V150.16L129.54 144.92L180.38 174.27ZM20.09 35.39L54.81 55.4399V55.4299C70.58 64.5399 80.3 81.37 80.3 99.58V110.14C80.3 128.36 70.58 145.19 54.81 154.29L20.24 174.24L0.15 139.45L50.99 110.09V99.62L0 70.1799L20.09 35.39Z"></path>
</svg>