<?xml version="1.0" standalone="no"?>
<!DOCTYPE svg PUBLIC "-//W3C//DTD SVG 20010904//EN"
 "http://www.w3.org/TR/2001/REC-SVG-20010904/DTD/svg10.dtd">
<svg version="1.0" xmlns="http://www.w3.org/2000/svg"
 width="875.000000pt" height="875.000000pt" viewBox="0 0 875.000000 875.000000"
 preserveAspectRatio="xMidYMid meet">
<metadata>
Created by potrace 1.14, written by Peter Selinger 2001-2017
</metadata>
<g transform="translate(0.000000,875.000000) scale(0.100000,-0.100000)"
fill="#000000" stroke="none">
<path d="M3533 8724 c-5 -11 -9 -61 -8 -111 1 -59 -3 -93 -9 -93 -8 0 -8 -3 0
-8 14 -10 14 -812 -1 -812 -7 0 -7 -3 0 -8 15 -10 15 -245 1 -254 -7 -5 -7 -8
-1 -8 7 0 11 -80 11 -227 1 -221 8 -371 21 -443 3 -19 7 -51 7 -72 1 -20 4
-34 9 -31 4 2 8 -10 8 -26 2 -35 2 -37 13 -71 5 -14 10 -32 11 -40 1 -8 4 -22
8 -30 10 -24 29 -105 26 -106 -2 0 1 -7 7 -15 6 -8 17 -32 24 -54 7 -22 20
-56 28 -75 9 -19 17 -41 18 -49 2 -8 8 -17 14 -21 7 -4 12 -11 12 -16 0 -5 5
-20 11 -34 6 -14 10 -28 9 -32 -1 -5 2 -8 8 -8 5 0 10 -7 10 -15 0 -9 6 -18
14 -21 8 -3 12 -12 9 -20 -3 -8 -1 -14 3 -14 5 0 20 -21 33 -47 14 -27 34 -58
45 -70 11 -13 16 -23 11 -23 -4 0 4 -11 19 -25 15 -14 24 -25 21 -25 -4 0 15
-27 41 -60 26 -33 51 -60 56 -60 5 0 7 -4 3 -9 -3 -5 6 -18 20 -29 14 -11 25
-22 25 -26 0 -5 68 -73 168 -168 27 -27 55 -48 62 -48 6 0 8 -4 5 -10 -3 -5 1
-10 10 -10 10 0 13 -5 9 -12 -4 -7 -4 -10 1 -6 7 7 55 -24 99 -64 11 -10 24
-18 28 -18 5 0 18 -9 30 -20 12 -11 28 -20 35 -20 7 0 13 -4 13 -10 0 -5 4
-10 10 -10 5 0 39 -18 75 -40 36 -22 68 -40 71 -40 3 0 25 -13 48 -30 24 -16
46 -26 50 -23 3 4 6 2 6 -3 0 -5 26 -22 58 -39 31 -16 59 -33 62 -36 3 -3 32
-20 65 -38 33 -18 65 -37 71 -42 6 -5 14 -6 17 -2 4 3 7 1 7 -5 0 -7 3 -11 8
-10 4 1 31 -10 61 -25 30 -15 61 -27 68 -27 7 0 13 -5 13 -11 0 -5 4 -8 9 -4
5 3 16 -1 24 -9 8 -8 17 -13 19 -10 3 2 18 -1 34 -7 16 -7 31 -13 34 -14 3 0
28 -8 55 -17 65 -22 173 -50 205 -53 14 -2 25 -4 25 -5 0 -8 134 -25 268 -35
43 -2 83 -7 87 -10 5 -3 12 -1 15 5 5 7 11 8 19 1 7 -6 18 -6 26 -1 7 4 23 4
36 0 12 -5 25 -6 28 -3 3 3 32 7 63 9 111 6 195 14 205 20 6 4 27 8 47 9 20 2
43 5 51 8 8 3 40 11 70 18 30 6 94 25 142 41 48 16 96 30 107 31 11 0 18 4 15
8 -3 6 20 15 56 24 3 0 29 13 58 28 30 15 58 27 64 27 5 0 16 7 25 15 8 8 19
13 24 9 5 -3 12 1 15 10 3 8 19 18 35 21 16 4 29 11 29 16 0 6 5 7 10 4 6 -3
10 -2 10 3 0 5 25 22 55 38 31 16 74 39 98 51 23 13 38 23 33 23 -5 0 15 13
45 28 91 48 153 84 172 100 9 8 17 11 17 7 0 -4 8 -1 18 7 15 13 94 59 210
123 21 11 39 22 42 25 3 3 16 11 29 18 13 8 40 23 60 34 20 12 56 32 81 46 25
14 48 29 51 34 3 6 8 9 10 8 8 -4 59 24 59 32 0 4 9 8 20 8 11 0 20 4 20 8 0
5 20 17 44 27 25 10 43 22 40 27 -3 4 1 8 9 8 8 0 26 9 41 21 14 11 26 18 26
14 0 -4 12 3 26 14 15 12 32 21 38 21 7 0 22 9 34 20 12 12 22 18 22 15 0 -3
17 6 37 20 21 14 43 25 49 25 22 0 21 25 -3 62 -12 21 -23 40 -23 43 0 3 -12
24 -27 48 -15 23 -38 62 -52 87 -13 25 -29 48 -35 52 -6 4 -7 8 -3 8 4 0 -8
25 -28 55 -19 31 -35 59 -35 64 0 5 -7 14 -15 21 -8 7 -12 16 -9 21 3 5 1 9
-4 9 -5 0 -17 18 -27 40 -10 22 -22 40 -27 40 -4 0 -7 3 -6 8 2 4 -23 51 -55
104 -31 53 -57 102 -57 107 0 6 -4 11 -9 11 -5 0 -11 8 -14 18 -4 9 -20 40
-37 67 -17 28 -33 58 -37 68 -3 9 -10 17 -15 17 -5 0 -6 5 -3 10 3 6 2 10 -3
10 -5 0 -12 8 -15 18 -6 19 -49 94 -58 102 -3 3 -12 20 -20 38 -8 17 -17 32
-21 32 -5 0 -8 7 -8 15 0 8 -5 15 -11 15 -5 0 -8 4 -4 9 3 5 1 12 -4 15 -5 4
-22 31 -37 61 -16 30 -32 55 -36 55 -4 0 -8 9 -8 20 0 11 -4 20 -10 20 -5 0
-10 5 -10 11 0 6 -7 17 -15 26 -8 8 -13 18 -11 21 2 4 -4 14 -13 23 -15 15
-21 14 -78 -22 -35 -21 -63 -35 -63 -31 0 4 -4 2 -8 -4 -4 -6 -29 -24 -57 -38
-27 -15 -68 -38 -90 -52 -22 -13 -51 -30 -65 -37 -14 -6 -31 -17 -38 -24 -8
-7 -18 -11 -23 -8 -5 4 -9 2 -9 -3 0 -8 -20 -20 -130 -79 -25 -13 -50 -30 -55
-36 -6 -7 -15 -13 -22 -14 -6 -1 -34 -16 -62 -33 -29 -16 -54 -30 -57 -30 -3
0 -12 -7 -21 -15 -8 -8 -19 -13 -24 -10 -5 4 -9 2 -9 -4 0 -5 -10 -13 -22 -17
-13 -4 -25 -10 -28 -14 -3 -3 -32 -21 -65 -40 -33 -18 -68 -40 -77 -48 -10 -8
-18 -12 -18 -8 0 4 -13 -2 -29 -13 -16 -12 -34 -21 -40 -21 -6 0 -11 -4 -11
-10 0 -5 -6 -10 -14 -10 -7 0 -19 -7 -26 -15 -7 -9 -15 -13 -18 -11 -2 3 -16
-4 -30 -14 -13 -11 -31 -20 -38 -20 -8 0 -14 -3 -14 -8 0 -4 -21 -18 -47 -31
-27 -14 -60 -33 -74 -43 -14 -9 -29 -15 -33 -11 -3 3 -6 2 -6 -4 0 -6 -15 -18
-32 -27 -18 -9 -52 -28 -75 -42 -24 -13 -43 -21 -43 -17 0 4 -6 0 -12 -9 -7
-8 -38 -28 -68 -44 -30 -16 -57 -32 -60 -35 -3 -3 -32 -20 -65 -38 -33 -18
-66 -38 -72 -43 -7 -6 -13 -7 -13 -2 0 5 -5 1 -11 -8 -5 -10 -16 -18 -23 -18
-7 0 -25 -9 -40 -21 -14 -11 -26 -17 -26 -12 0 4 -7 -1 -15 -11 -8 -11 -15
-17 -15 -13 0 4 -18 -4 -41 -18 -22 -15 -57 -35 -76 -46 l-37 -21 -48 23 c-26
12 -48 26 -48 31 0 5 -4 7 -9 3 -5 -3 -13 -1 -16 5 -4 6 -33 24 -65 40 -32 16
-61 34 -65 40 -3 6 -11 8 -16 5 -5 -4 -9 -2 -9 3 0 5 -18 17 -40 27 -22 10
-40 22 -40 27 0 5 -4 6 -10 3 -12 -7 -12 -6 -14 100 -1 44 -5 85 -9 92 -4 6
-3 14 1 17 11 6 10 126 -1 143 -4 6 -4 14 1 17 10 6 9 287 -1 303 -4 6 -4 14
1 17 10 6 9 287 -1 303 -4 6 -4 14 1 17 10 6 9 287 -1 303 -4 6 -4 14 1 17 10
6 9 287 -1 303 -4 6 -4 14 1 17 10 6 9 287 -1 303 -4 6 -4 14 1 17 10 6 10
286 0 302 -4 6 -4 14 0 18 4 4 7 45 8 91 0 70 -2 82 -15 80 -9 -1 -19 3 -23 9
-5 7 -8 7 -8 1 0 -12 -100 -12 -118 -1 -7 4 -12 3 -12 -2 0 -10 -92 -8 -109 2
-6 4 -11 3 -11 -2 0 -10 -92 -8 -109 2 -6 4 -11 3 -11 -2 0 -10 -92 -8 -109 2
-6 4 -11 3 -11 -2 0 -10 -92 -8 -109 2 -6 4 -11 3 -11 -2 0 -10 -92 -8 -109 2
-6 4 -11 3 -11 -2 0 -10 -92 -8 -109 2 -6 4 -11 3 -11 -2 0 -10 -92 -8 -109 2
-6 4 -11 3 -11 -2 0 -10 -92 -8 -109 2 -6 4 -11 3 -11 -2 0 -10 -92 -8 -109 2
-6 4 -11 3 -11 -2 0 -10 -92 -8 -109 2 -6 4 -11 3 -11 -2 0 -10 -92 -8 -109 2
-6 4 -11 3 -11 -2 0 -10 -92 -8 -109 2 -6 4 -11 2 -11 -4 0 -12 -32 -10 -41 4
-4 5 -11 0 -16 -10z"/>
<path d="M979 7213 c-18 -34 -37 -63 -42 -63 -4 0 -5 -4 -2 -10 3 -5 1 -10 -6
-10 -7 0 -9 -3 -6 -6 4 -4 -4 -21 -16 -38 -12 -17 -22 -33 -22 -36 -1 -10 -60
-105 -67 -108 -5 -2 -6 -8 -2 -13 3 -5 1 -9 -4 -9 -6 0 -13 -11 -16 -25 -4
-14 -11 -25 -17 -25 -6 0 -7 -5 -4 -10 3 -6 -1 -13 -9 -16 -9 -3 -13 -10 -10
-15 3 -5 0 -9 -7 -9 -7 0 -10 -3 -6 -6 3 -4 -7 -26 -24 -50 -16 -24 -27 -44
-23 -44 4 0 0 -8 -8 -17 -14 -18 -35 -52 -86 -143 -14 -25 -29 -48 -34 -51 -6
-3 -8 -8 -7 -10 4 -6 -71 -138 -82 -145 -5 -3 -7 -10 -4 -15 4 -5 2 -9 -3 -9
-5 0 -12 -8 -16 -17 -3 -10 -13 -32 -23 -48 -10 -17 -31 -53 -47 -80 -16 -28
-33 -53 -38 -56 -6 -3 -9 -8 -8 -10 4 -8 -34 -79 -42 -79 -4 0 -8 -9 -8 -20 0
-11 -4 -20 -8 -20 -4 0 -20 -25 -36 -55 -15 -30 -32 -55 -37 -55 -6 0 -7 -5
-4 -10 3 -6 -1 -17 -10 -26 -23 -23 -17 -32 50 -67 33 -18 62 -35 65 -38 3 -3
30 -19 60 -36 30 -17 95 -53 143 -82 49 -28 93 -51 98 -51 5 0 9 -4 9 -9 0 -5
8 -11 18 -14 9 -3 44 -22 77 -42 33 -20 68 -38 78 -42 9 -3 17 -10 17 -15 0
-5 5 -6 10 -3 5 3 10 2 10 -3 0 -5 8 -12 18 -15 9 -4 36 -18 60 -32 23 -14 61
-36 85 -50 23 -14 50 -28 60 -32 9 -3 17 -9 17 -14 0 -5 6 -9 13 -9 6 0 23 -9
37 -20 14 -11 33 -20 43 -20 10 0 20 -7 23 -15 4 -8 10 -12 15 -9 5 3 9 0 9
-6 0 -6 5 -8 10 -5 5 3 10 2 10 -3 0 -5 18 -17 40 -27 22 -10 45 -24 51 -31 6
-8 15 -11 20 -8 5 3 9 2 9 -3 0 -4 21 -19 48 -33 26 -13 71 -39 100 -58 28
-18 52 -29 52 -25 0 4 4 3 8 -3 4 -6 50 -34 102 -64 52 -30 96 -57 98 -62 2
-4 9 -8 16 -8 7 0 33 -13 59 -30 26 -16 47 -27 47 -24 0 2 6 0 13 -6 24 -21
83 -57 140 -85 31 -16 57 -33 57 -38 0 -4 4 -5 10 -2 6 3 10 2 10 -2 0 -5 18
-16 40 -26 22 -9 40 -22 40 -29 0 -6 3 -8 6 -5 4 4 19 -2 34 -13 16 -11 35
-20 43 -20 26 0 31 -38 32 -249 l0 -203 -26 -19 c-15 -10 -32 -19 -38 -19 -6
0 -11 -4 -11 -10 0 -5 -9 -10 -20 -10 -11 0 -20 -4 -20 -9 0 -4 -22 -19 -50
-32 -27 -13 -50 -26 -50 -29 0 -4 -16 -12 -35 -20 -19 -8 -35 -18 -35 -22 0
-5 -4 -6 -10 -3 -5 3 -10 1 -10 -5 0 -6 -4 -9 -9 -6 -5 3 -12 -1 -15 -10 -3
-8 -10 -12 -16 -9 -5 3 -10 2 -10 -3 0 -4 -16 -14 -35 -22 -19 -8 -35 -17 -35
-21 0 -4 -11 -10 -25 -13 -14 -4 -25 -10 -25 -15 0 -5 -15 -14 -32 -22 -18 -7
-44 -20 -58 -30 -30 -20 -126 -75 -160 -92 -14 -6 -27 -14 -30 -17 -3 -3 -16
-11 -29 -18 -101 -57 -194 -111 -211 -122 -8 -6 -26 -16 -40 -22 -14 -7 -27
-15 -30 -18 -5 -5 -13 -10 -89 -52 -20 -11 -39 -25 -42 -30 -3 -5 -9 -9 -13
-9 -17 3 -26 0 -38 -12 -7 -7 -34 -24 -60 -37 -27 -13 -48 -28 -48 -33 0 -6
-3 -8 -6 -4 -3 3 -30 -10 -59 -29 -30 -19 -58 -34 -63 -34 -5 0 -15 -7 -22
-15 -7 -8 -16 -12 -21 -9 -5 3 -9 1 -9 -5 0 -5 -10 -13 -22 -17 -13 -4 -25 -9
-28 -13 -3 -3 -25 -17 -50 -30 -25 -13 -53 -31 -64 -40 -10 -9 -19 -14 -20
-12 -1 4 -14 -3 -86 -48 -14 -8 -28 -14 -32 -13 -5 1 -8 -2 -8 -6 0 -5 -16
-14 -35 -22 -19 -8 -35 -17 -35 -20 0 -3 -18 -14 -40 -24 -22 -10 -46 -23 -53
-29 -7 -7 -34 -23 -60 -37 -26 -13 -47 -28 -47 -32 0 -12 23 -52 35 -60 6 -4
6 -8 2 -8 -5 0 1 -12 12 -26 12 -15 21 -33 21 -41 0 -7 7 -16 15 -19 8 -4 15
-15 15 -25 0 -10 5 -19 11 -19 5 0 8 -4 5 -9 -4 -5 -2 -11 2 -13 11 -4 87
-141 84 -150 -1 -5 2 -8 8 -8 5 0 16 -15 25 -32 8 -18 28 -55 45 -83 17 -27
35 -59 40 -70 6 -11 19 -33 30 -50 11 -16 26 -43 35 -60 34 -67 66 -120 78
-127 6 -4 8 -8 3 -8 -5 0 -4 -6 2 -12 5 -7 19 -29 30 -49 42 -76 47 -84 61
-101 8 -10 10 -18 6 -18 -4 0 -1 -8 7 -17 19 -22 128 -212 128 -223 0 -4 7
-13 15 -20 8 -7 24 -31 35 -54 32 -68 74 -136 85 -135 24 0 55 12 55 20 0 5 4
9 9 9 7 0 77 39 219 123 26 15 62 34 79 43 18 9 33 20 33 25 0 5 3 8 8 7 11
-3 82 35 82 44 0 4 6 8 14 8 8 0 22 7 30 16 9 8 16 13 16 9 0 -6 12 0 65 35
17 11 41 25 55 32 14 7 27 15 30 19 5 5 36 18 45 19 3 0 15 9 27 20 12 11 28
20 35 20 7 0 13 5 13 11 0 5 4 8 9 5 5 -3 14 1 21 9 7 8 17 15 22 15 5 0 34
16 64 35 30 19 58 35 63 35 4 0 21 10 37 22 15 12 33 23 39 24 6 1 28 13 49
28 21 14 41 24 45 22 8 -5 31 20 25 28 -2 3 -1 4 2 1 4 -2 16 1 28 7 11 7 25
11 29 10 4 -1 10 5 13 13 4 8 11 15 18 15 6 0 28 11 49 25 20 14 37 22 37 18
0 -4 4 -3 8 2 4 6 23 18 42 29 19 10 41 26 48 34 6 9 12 12 12 8 0 -5 7 -3 15
4 8 7 15 10 15 7 0 -3 12 5 26 18 15 14 30 22 34 20 4 -3 11 2 14 11 4 9 9 14
12 11 3 -3 14 2 24 11 10 10 25 22 32 27 82 61 168 136 237 206 64 64 167 180
164 185 -2 2 5 12 15 22 39 42 132 177 132 192 0 6 5 10 12 10 6 0 8 3 5 6 -4
4 2 19 12 33 26 37 105 199 121 246 7 22 16 45 21 51 5 6 6 14 2 17 -3 4 0 7
7 7 7 0 11 3 8 6 -3 3 3 29 14 57 11 29 20 63 21 77 1 14 5 27 8 30 7 6 37
127 44 180 3 19 7 46 10 60 2 14 7 52 11 85 10 74 9 860 -1 935 -4 30 -8 65
-9 78 0 12 -3 22 -6 22 -3 0 -7 15 -8 32 -2 18 -10 60 -18 93 -9 33 -18 69
-21 80 -5 25 -8 36 -15 55 -3 8 -16 44 -28 80 -13 36 -27 76 -33 90 -6 14 -11
27 -11 30 -1 3 -13 30 -27 60 -15 30 -29 62 -33 70 -3 8 -22 42 -41 75 -19 33
-38 68 -41 78 -4 9 -11 17 -16 17 -5 0 -6 5 -3 10 3 6 1 10 -4 10 -6 0 -11 7
-11 15 0 8 -4 15 -10 15 -5 0 -10 7 -10 15 0 8 -4 15 -8 15 -4 0 -16 13 -25
30 -10 16 -23 35 -30 42 -8 7 -18 20 -23 30 -35 62 -261 291 -364 368 -19 14
-46 35 -61 48 -15 12 -32 22 -38 22 -6 0 -11 5 -11 10 0 6 -7 10 -15 10 -8 0
-15 4 -15 8 0 5 -10 14 -22 20 -13 6 -41 23 -63 36 -22 14 -51 31 -65 39 -95
53 -126 71 -135 77 -5 5 -36 21 -67 38 -32 16 -54 32 -51 36 3 3 -3 6 -15 6
-12 0 -22 3 -22 8 0 4 -10 12 -23 18 -65 32 -107 57 -107 65 0 5 -3 8 -7 7
-12 -4 -73 26 -73 34 0 5 -7 8 -15 8 -9 0 -18 6 -21 14 -3 8 -12 12 -20 9 -8
-3 -14 -1 -14 3 0 5 -34 27 -75 49 -41 21 -75 43 -75 48 0 4 -4 6 -8 3 -5 -3
-19 4 -30 15 -12 10 -23 18 -24 17 -5 -4 -123 65 -130 76 -4 6 -8 7 -8 3 0 -5
-12 0 -27 11 -16 10 -59 36 -98 57 -38 21 -72 41 -75 44 -3 3 -34 21 -70 40
-36 19 -67 37 -70 40 -5 6 -33 22 -111 63 l-46 25 -34 -64z"/>
<path d="M5907 4054 c-3 -3 -137 -16 -179 -17 -21 -1 -38 -4 -38 -7 0 -3 -15
-7 -32 -8 -18 -1 -42 -6 -53 -9 -11 -4 -28 -8 -37 -9 -10 -1 -19 -2 -20 -4 -2
-1 -10 -3 -18 -5 -8 -1 -35 -8 -60 -15 -25 -7 -46 -12 -47 -11 -2 0 -18 -6
-37 -14 -18 -8 -36 -11 -40 -8 -3 4 -6 2 -6 -4 0 -5 -7 -10 -15 -11 -8 -1 -22
-3 -30 -4 -8 -1 -15 -5 -15 -10 0 -4 -9 -8 -19 -8 -11 0 -23 -4 -26 -10 -3 -5
-15 -10 -26 -10 -10 0 -19 -5 -19 -12 0 -6 -3 -9 -6 -5 -4 3 -21 -1 -38 -10
-17 -10 -33 -18 -36 -18 -3 0 -20 -9 -37 -18 -18 -10 -33 -14 -33 -10 0 5 -5
0 -11 -9 -5 -10 -17 -18 -24 -18 -8 0 -15 -5 -15 -12 0 -6 -3 -8 -6 -5 -4 4
-20 -3 -35 -14 -16 -11 -29 -17 -29 -12 0 4 -4 3 -8 -3 -4 -7 -34 -27 -67 -45
-33 -18 -62 -35 -65 -39 -3 -3 -22 -14 -42 -23 -20 -10 -40 -22 -43 -27 -3 -6
-15 -10 -26 -10 -10 0 -19 -4 -19 -10 0 -5 -15 -16 -32 -24 -44 -20 -91 -49
-100 -61 -5 -7 -8 -7 -8 0 0 6 -5 2 -11 -7 -5 -10 -17 -18 -24 -18 -8 0 -15
-5 -15 -11 0 -5 -4 -7 -10 -4 -5 3 -10 1 -10 -5 0 -6 -8 -14 -17 -17 -10 -4
-26 -15 -35 -26 -10 -11 -18 -16 -18 -11 0 5 -10 -1 -22 -13 -52 -49 -79 -73
-85 -73 -6 0 -205 -200 -243 -245 -14 -17 -56 -73 -93 -125 -37 -52 -74 -104
-82 -115 -8 -10 -15 -25 -15 -32 0 -7 -3 -13 -8 -13 -4 0 -13 -15 -21 -32 -8
-18 -20 -40 -27 -48 -7 -8 -13 -18 -14 -22 0 -4 -21 -51 -45 -103 -25 -53 -45
-100 -45 -104 0 -5 -9 -30 -19 -57 -27 -69 -33 -87 -37 -104 -9 -50 -46 -188
-54 -202 -6 -11 -6 -19 0 -23 6 -4 7 -13 1 -24 -5 -9 -13 -46 -16 -82 -4 -35
-9 -77 -11 -94 -2 -16 -4 -72 -6 -122 -1 -56 -6 -93 -13 -93 -7 0 -7 -3 1 -8
14 -10 14 -684 0 -694 -8 -5 -8 -8 -1 -8 7 0 11 -44 11 -119 0 -73 -4 -117
-10 -114 -5 4 -6 1 0 -8 13 -20 12 -389 -1 -389 -6 0 -6 -3 1 -8 6 -4 10 -60
10 -147 l0 -140 819 -3 c451 -1 829 0 841 2 19 5 20 12 20 128 0 72 -5 126
-11 130 -7 5 -6 8 1 8 13 0 13 148 0 169 -6 9 -5 12 1 8 13 -8 12 286 -2 295
-7 5 -6 8 1 8 13 0 13 148 0 169 -6 9 -5 12 1 8 13 -8 12 286 -2 295 -7 5 -6
8 1 8 13 0 13 148 0 169 -6 9 -5 12 1 8 13 -8 12 286 -2 295 -7 5 -6 8 1 8 13
0 13 148 0 169 -6 9 -5 12 1 8 13 -8 12 286 -2 295 -7 5 -6 8 1 8 7 0 10 42 9
128 0 80 3 131 10 138 6 6 27 19 45 29 19 10 43 24 53 33 9 8 17 12 17 8 0 -4
20 7 45 24 25 17 45 29 45 26 0 -3 9 2 20 12 12 9 24 17 28 18 4 0 23 10 42
22 19 11 39 21 44 21 5 -1 12 5 17 12 6 10 22 4 67 -24 33 -20 65 -37 70 -37
6 0 12 -4 14 -8 2 -5 28 -22 58 -39 30 -16 73 -41 95 -53 22 -13 59 -34 82
-46 23 -12 40 -24 37 -27 -3 -3 8 -8 25 -12 17 -4 31 -10 31 -14 0 -4 23 -18
50 -31 28 -13 50 -27 50 -32 0 -4 4 -8 9 -8 9 0 92 -46 176 -97 22 -13 48 -26
58 -30 9 -3 17 -9 17 -14 0 -5 5 -9 11 -9 15 0 202 -110 211 -124 4 -6 8 -8 8
-4 0 4 24 -7 53 -24 28 -17 77 -44 107 -61 30 -17 67 -38 82 -49 14 -10 31
-18 37 -18 6 0 11 -4 11 -10 0 -5 9 -10 20 -10 11 0 20 -4 20 -10 0 -5 7 -10
15 -10 8 0 15 -4 15 -9 0 -5 11 -12 25 -15 14 -4 25 -11 25 -17 0 -6 4 -8 8
-5 5 3 18 -2 28 -12 11 -9 26 -18 34 -20 8 -2 17 -8 18 -13 2 -5 8 -9 13 -9 5
0 30 -13 56 -28 105 -63 148 -86 156 -84 4 1 7 -2 7 -6 0 -5 18 -17 40 -27 22
-10 40 -22 40 -27 0 -4 9 -8 20 -8 11 0 20 -3 20 -8 0 -4 21 -18 48 -32 26
-13 49 -27 52 -30 3 -3 19 -12 35 -20 17 -8 36 -21 43 -28 20 -18 30 -15 49
15 10 16 20 30 23 33 4 3 12 20 19 38 8 17 18 32 23 32 5 0 6 5 3 10 -3 6 -2
10 3 10 4 0 14 16 22 35 8 19 17 35 22 35 4 0 8 7 8 15 0 8 5 15 12 15 6 0 9
3 5 6 -3 4 5 22 18 42 13 19 22 39 19 44 -3 4 0 8 6 8 6 0 15 10 20 23 6 12
20 38 31 57 12 19 33 56 46 83 14 26 30 47 36 47 6 0 7 3 4 6 -4 4 2 19 11 33
10 14 27 43 37 65 11 21 26 40 32 43 7 3 10 10 7 15 -4 6 -3 13 2 17 11 8 38
52 65 109 12 23 25 42 31 42 5 0 6 5 3 10 -3 6 -3 10 2 10 4 0 17 20 28 45 11
25 22 45 26 45 4 0 10 11 13 25 4 14 11 25 16 25 6 0 10 9 10 19 0 10 7 22 16
25 8 3 12 10 9 16 -3 5 -1 10 4 10 6 0 11 7 11 15 0 8 5 15 11 15 5 0 8 4 4 9
-3 5 1 16 10 24 8 8 16 21 17 28 2 7 11 22 21 33 9 11 17 26 17 33 0 7 5 13
10 13 6 0 10 6 10 13 0 7 8 24 17 37 10 14 18 31 20 39 1 8 6 17 11 20 17 11
34 51 22 51 -6 0 -8 5 -5 10 4 6 3 9 -2 8 -11 -3 -90 39 -98 52 -3 5 -12 10
-20 10 -7 0 -37 16 -66 35 -30 19 -59 35 -65 35 -7 0 -14 3 -16 8 -4 9 -76 51
-100 59 -10 3 -18 9 -18 14 0 5 -4 9 -10 9 -5 0 -44 20 -86 45 -41 25 -78 45
-80 45 -3 0 -30 16 -60 35 -30 19 -58 35 -63 35 -5 0 -14 7 -21 15 -7 9 -15
13 -17 11 -3 -3 -10 0 -17 5 -21 18 -145 89 -155 89 -6 0 -11 4 -11 8 0 4 -16
14 -35 21 -19 7 -35 16 -35 21 0 5 -16 14 -35 21 -19 7 -35 16 -35 20 0 4 -8
9 -17 12 -10 4 -40 20 -68 36 -27 17 -66 38 -85 48 -19 9 -37 20 -40 23 -3 4
-32 22 -65 40 -33 18 -71 40 -85 49 -14 9 -43 26 -65 36 -22 11 -42 23 -45 26
-6 7 -41 19 -54 18 -5 0 -12 3 -15 8 -8 12 -64 37 -148 69 -38 13 -75 28 -83
31 -8 3 -19 7 -25 9 -5 1 -45 12 -88 24 -43 12 -88 23 -100 26 -12 2 -44 8
-72 14 -50 11 -67 13 -185 25 -57 6 -328 13 -333 9z"/>
</g>
</svg>
